<svg width="32" height="32" viewBox="0 0 32 32" fill="none" xmlns="http://www.w3.org/2000/svg">
<path d="M25.427 6.57317L23.547 8.45317C25.467 10.3865 26.667 13.0532 26.667 15.9998C26.667 21.8932 21.8937 26.6665 16.0003 26.6665C10.107 26.6665 5.33366 21.8932 5.33366 15.9998C5.33366 10.5598 9.40033 6.07984 14.667 5.4265V8.11984C10.8803 8.75984 8.00033 12.0398 8.00033 15.9998C8.00033 20.4132 11.587 23.9998 16.0003 23.9998C20.4137 23.9998 24.0003 20.4132 24.0003 15.9998C24.0003 13.7865 23.107 11.7865 21.6537 10.3465L19.7737 12.2265C20.7337 13.1998 21.3337 14.5332 21.3337 15.9998C21.3337 18.9465 18.947 21.3332 16.0003 21.3332C13.0537 21.3332 10.667 18.9465 10.667 15.9998C10.667 13.5198 12.3737 11.4532 14.667 10.8532V13.7065C13.867 14.1732 13.3337 15.0132 13.3337 15.9998C13.3337 17.4665 14.5337 18.6665 16.0003 18.6665C17.467 18.6665 18.667 17.4665 18.667 15.9998C18.667 15.0132 18.1337 14.1598 17.3337 13.7065V2.6665H16.0003C8.64033 2.6665 2.66699 8.63984 2.66699 15.9998C2.66699 23.3598 8.64033 29.3332 16.0003 29.3332C23.3603 29.3332 29.3337 23.3598 29.3337 15.9998C29.3337 12.3198 27.8403 8.9865 25.427 6.57317Z" fill="#FF6C00"/>
</svg>
