<svg width="32" height="32" viewBox="0 0 32 32" fill="none" xmlns="http://www.w3.org/2000/svg">
<path d="M12.0003 18.3332C8.88033 18.3332 2.66699 19.8932 2.66699 22.9998V25.3332H21.3337V22.9998C21.3337 19.8932 15.1203 18.3332 12.0003 18.3332ZM5.78699 22.6665C6.90699 21.8932 9.61366 20.9998 12.0003 20.9998C14.387 20.9998 17.0937 21.8932 18.2137 22.6665H5.78699ZM12.0003 15.9998C14.5737 15.9998 16.667 13.9065 16.667 11.3332C16.667 8.75984 14.5737 6.6665 12.0003 6.6665C9.42699 6.6665 7.33366 8.75984 7.33366 11.3332C7.33366 13.9065 9.42699 15.9998 12.0003 15.9998ZM12.0003 9.33317C13.107 9.33317 14.0003 10.2265 14.0003 11.3332C14.0003 12.4398 13.107 13.3332 12.0003 13.3332C10.8937 13.3332 10.0003 12.4398 10.0003 11.3332C10.0003 10.2265 10.8937 9.33317 12.0003 9.33317ZM21.387 18.4132C22.9337 19.5332 24.0003 21.0265 24.0003 22.9998V25.3332H29.3337V22.9998C29.3337 20.3065 24.667 18.7732 21.387 18.4132V18.4132ZM20.0003 15.9998C22.5737 15.9998 24.667 13.9065 24.667 11.3332C24.667 8.75984 22.5737 6.6665 20.0003 6.6665C19.2803 6.6665 18.6137 6.83984 18.0003 7.13317C18.8403 8.31984 19.3337 9.77317 19.3337 11.3332C19.3337 12.8932 18.8403 14.3465 18.0003 15.5332C18.6137 15.8265 19.2803 15.9998 20.0003 15.9998Z" fill="white"/>
</svg>
