<svg width="30" height="23" viewBox="0 0 30 23" fill="none" xmlns="http://www.w3.org/2000/svg">
<path d="M26.9997 6.6665C25.0663 6.6665 23.9863 8.5865 24.4263 10.0132L19.693 14.7598C19.293 14.6398 18.7063 14.6398 18.3063 14.7598L14.9063 11.3598C15.3597 9.93317 14.2797 7.99984 12.333 7.99984C10.3997 7.99984 9.30634 9.91984 9.75967 11.3598L3.67967 17.4265C2.25301 16.9865 0.333008 18.0665 0.333008 19.9998C0.333008 21.4665 1.53301 22.6665 2.99967 22.6665C4.93301 22.6665 6.01301 20.7465 5.57301 19.3198L11.6397 13.2398C12.0397 13.3598 12.6263 13.3598 13.0263 13.2398L16.4263 16.6398C15.973 18.0665 17.053 19.9998 18.9997 19.9998C20.933 19.9998 22.0263 18.0798 21.573 16.6398L26.3197 11.9065C27.7463 12.3465 29.6663 11.2665 29.6663 9.33317C29.6663 7.8665 28.4663 6.6665 26.9997 6.6665Z" fill="#FF6C00"/>
<path d="M19 8L20.2533 5.24L23 4L20.2533 2.76L19 0L17.7733 2.76L15 4L17.7733 5.24L19 8Z" fill="#FF6C00"/>
<path d="M3.66634 10.6667L4.33301 8L6.99967 7.33333L4.33301 6.66667L3.66634 4L2.99967 6.66667L0.333008 7.33333L2.99967 8L3.66634 10.6667Z" fill="#FF6C00"/>
</svg>
