<svg width="32" height="32" viewBox="0 0 32 32" fill="none" xmlns="http://www.w3.org/2000/svg">
<path d="M29.3337 6.9065L14.1203 22.1332L8.46699 16.4798L10.347 14.5998L14.1203 18.3732L27.4537 5.03984L29.3337 6.9065ZM26.387 13.6265C26.5603 14.3865 26.667 15.1865 26.667 15.9998C26.667 21.8932 21.8937 26.6665 16.0003 26.6665C10.107 26.6665 5.33366 21.8932 5.33366 15.9998C5.33366 10.1065 10.107 5.33317 16.0003 5.33317C18.107 5.33317 20.0537 5.9465 21.707 6.99984L23.627 5.07984C21.467 3.55984 18.8403 2.6665 16.0003 2.6665C8.64033 2.6665 2.66699 8.63984 2.66699 15.9998C2.66699 23.3598 8.64033 29.3332 16.0003 29.3332C23.3603 29.3332 29.3337 23.3598 29.3337 15.9998C29.3337 14.4132 29.0403 12.8932 28.5337 11.4798L26.387 13.6265Z" fill="#FF6C00"/>
</svg>
