<svg width="100" height="31" viewBox="0 0 100 31" fill="none" xmlns="http://www.w3.org/2000/svg">
<path d="M33.9494 11.4605C31.9127 11.4605 30.3768 13.0938 30.3768 15.2629C30.3768 17.4319 31.9288 19.0652 33.9862 19.0652C36.0223 19.0652 37.5582 17.4319 37.5582 15.2629C37.5582 13.0938 36.0068 11.4605 33.9494 11.4605ZM44.2712 0.154785H0V30.5343H44.2712L54.7259 15.3772L44.2712 0.154785ZM23.1488 20.0726L23.0462 20.1608C21.3934 21.5785 19.48 22.2972 17.3593 22.2972C15.3542 22.2972 13.5453 21.5883 12.2662 20.3013C10.9987 19.0247 10.2998 17.2353 10.2998 15.2629C10.2998 13.3682 11.0097 11.6043 12.3004 10.2976C13.6098 8.96419 15.3981 8.22985 17.3439 8.22985C19.5381 8.22985 21.0553 8.76819 22.5899 10.0873L22.8087 10.2754L20.6513 12.9031L20.4274 12.7143C19.4864 11.9205 18.6643 11.4605 17.2477 11.4605C15.3691 11.4605 13.8409 13.1664 13.8409 15.2629C13.8409 17.4881 15.3588 19.1025 17.4497 19.1025C18.37 19.1025 19.1883 18.881 19.8265 18.4596V17.0464H16.9767V13.9811H23.1488V20.0726ZM39.0735 20.2314C37.7454 21.5635 35.9255 22.2972 33.9494 22.2972C31.9734 22.2972 30.1573 21.5687 28.8428 20.2451C27.5482 18.9417 26.8351 17.1745 26.8351 15.2629C26.8292 14.3399 27.0054 13.4249 27.3534 12.5718C27.7014 11.7186 28.2141 10.9443 28.8615 10.2944C30.1896 8.96223 32.0095 8.23181 33.9862 8.23181C35.9629 8.23181 37.7777 8.96092 39.0923 10.2839C40.3868 11.5873 41.0999 13.3545 41.0999 15.2661C41.1054 16.1886 40.929 17.1029 40.5811 17.9555C40.2331 18.8081 39.7206 19.5818 39.0735 20.2314V20.2314Z" fill="black"/>
<path d="M10.5732 15.2879C10.5732 11.6475 13.3741 8.66577 17.2049 8.66577C19.4817 8.66577 20.855 9.28774 22.1741 10.4219L20.4213 12.5622C19.4456 11.739 18.5782 11.2634 17.1145 11.2634C15.0907 11.2634 13.4825 13.0744 13.4825 15.2879C13.4825 17.6294 15.0726 19.3489 17.3133 19.3489C18.3252 19.3489 19.2287 19.0928 19.9334 18.5806V16.7513H17.1326V14.3157H22.6259V19.8768C21.3248 20.9927 19.5359 21.9073 17.223 21.9073C13.2837 21.9073 10.5732 19.1085 10.5732 15.2879Z" fill="white" stroke="white" stroke-miterlimit="10"/>
<path d="M27.3525 15.3772C27.3525 11.7369 30.1921 8.75513 34.0926 8.75513C37.9931 8.75513 40.7965 11.7003 40.7965 15.3772C40.7965 19.0175 37.957 21.9993 34.0565 21.9993C30.1559 21.9993 27.3525 19.0541 27.3525 15.3772ZM37.8873 15.3772C37.8873 13.182 36.2971 11.3527 34.0565 11.3527C31.8158 11.3527 30.2618 13.1455 30.2618 15.3772C30.2618 17.5724 31.8519 19.4017 34.0926 19.4017C36.3333 19.4017 37.8873 17.609 37.8873 15.3772V15.3772Z" fill="white" stroke="white" stroke-miterlimit="10"/>
<path d="M100.001 0H55.7842V30.3795H100.001V0Z" fill="#FF6C00"/>
<path d="M69.4062 9.10547H72.189V21.9106H69.4062V9.10547Z" fill="white" stroke="white" stroke-miterlimit="10"/>
<path d="M80.4212 11.7031H76.5723V9.10547H87.0528V11.7031H83.2039V21.9106H80.4212V11.7031Z" fill="white" stroke="white" stroke-miterlimit="10"/>
</svg>
